<svg xmlns="http://www.w3.org/2000/svg" viewBox="0 0 480 480"><path d="M307.133 318.695v-157.39c20.061-2.161 37.073-10.243 49.609-23.667 13.489-14.445 20.918-34.565 20.918-56.654C377.661 36.33 341.435 0 296.909 0c-21.503 0-41.592 8.452-56.678 23.536C225.14 8.452 205.024 0 183.481 0c-44.626 0-80.932 36.33-80.932 80.984 0 21.644 8.326 41.97 23.445 57.233 12.928 13.052 29.551 21.108 47.561 23.208v157.161c-40.049 4.747-71.216 39.006-71.216 80.43 0 44.655 36.38 80.984 81.097 80.984 21.593 0 41.74-8.454 56.841-23.539C255.378 471.546 275.525 480 297.118 480c21.625 0 41.891-8.437 57.067-23.757 15.119-15.262 23.445-35.587 23.445-57.228 0-22.09-7.423-42.209-20.901-56.651-12.529-13.425-29.536-21.508-49.596-23.669zM297.118 460c-19.304 0-37.099-9.027-48.821-24.768a10 10 0 0 0-16.041 0C220.536 450.973 202.74 460 183.437 460c-33.689 0-61.097-27.357-61.097-60.984 0-33.302 26.725-60.456 59.774-60.983a9.99 9.99 0 0 0 6.113-1.053 10 10 0 0 0 5.33-8.842V151.863a10 10 0 0 0-5.153-8.747c-1.948-1.08-4.162-1.459-6.292-1.148-32.93-.514-59.561-27.673-59.561-60.984 0-33.627 27.334-60.984 60.932-60.984 19.247 0 37.009 9.027 48.73 24.768a10 10 0 0 0 16.041 0C259.974 29.027 277.71 20 296.909 20c33.499 0 60.752 27.357 60.752 60.984 0 36.566-23.804 60.471-60.644 60.902-5.477.065-9.883 4.523-9.883 10v176.229c0 5.477 4.406 9.935 9.883 10 36.821.43 60.614 24.336 60.614 60.902C357.63 432.643 330.485 460 297.118 460z"/></svg>